<?xml version="1.0" standalone="no"?>
<!DOCTYPE svg PUBLIC "-//W3C//DTD SVG 20010904//EN"
 "http://www.w3.org/TR/2001/REC-SVG-20010904/DTD/svg10.dtd">
<svg version="1.0" xmlns="http://www.w3.org/2000/svg"
 width="24" height="24" viewBox="0 0 512.000000 512.000000"
 preserveAspectRatio="xMidYMid meet">

<g transform="translate(0.000000,512.000000) scale(0.100000,-0.100000)"
fill="#000000" stroke="none">
<path d="M2449 4995 c-66 -21 -138 -72 -177 -125 -18 -25 -159 -301 -314 -615
-154 -313 -289 -582 -300 -598 -11 -15 -33 -34 -48 -42 -17 -9 -304 -55 -678
-109 -422 -62 -667 -102 -701 -115 -196 -74 -285 -311 -189 -501 29 -57 87
-116 503 -523 258 -252 479 -473 490 -490 13 -21 19 -46 18 -81 -1 -28 -49
-327 -107 -664 -58 -338 -106 -635 -106 -661 0 -245 258 -424 486 -339 34 13
313 156 620 318 536 283 561 295 614 295 53 0 77 -12 614 -295 308 -162 585
-305 615 -317 228 -90 491 92 491 340 0 25 -50 335 -110 688 -96 559 -109 646
-100 681 13 47 13 47 567 588 362 352 416 409 443 463 92 187 8 414 -183 496
-34 15 -236 48 -703 116 -375 54 -667 101 -684 110 -16 8 -37 27 -48 42 -11
16 -144 282 -297 593 -153 311 -291 584 -306 606 -65 95 -161 146 -284 151
-51 2 -97 -3 -126 -12z"/>
</g>
</svg>
